<svg preserveAspectRatio="none" width="100%" height="100%" overflow="visible" style="display: block;" viewBox="0 0 61.5193 61.5193" fill="none" xmlns="http://www.w3.org/2000/svg">
<g id="Group 68">
<circle id="Ellipse 34" cx="30.7597" cy="30.7597" r="30.7597" fill="var(--fill-0, #0D1671)"/>
<path id="Vector 44" d="M13.947 24.3933C13.947 24.3933 19.4553 22.2979 20.893 21.9126C24.8622 20.8491 25.3956 22.4717 24.8622 25.3856C24.3288 28.2996 22.3815 30.8433 20.893 33.324C19.4046 35.8047 15.4354 41.7585 16.4277 41.7585C17.42 41.7585 22.5614 35.697 24.8768 33.2163C27.1921 30.7356 30.3198 26.8741 32.8006 25.3856C35.2813 23.8972 32.2052 28.6602 29.8237 31.8356C27.4422 35.0109 25.8545 37.7893 27.3429 37.7893C28.8314 37.7893 44.2119 20.9203 45.7004 20.9203C47.1888 20.9203 34.8899 40.7662 35.7774 40.7662C36.7697 40.7662 41.2351 38.7816 45.7004 34.8124" stroke="var(--stroke-0, #F0F2F2)" stroke-width="1.49431" stroke-linecap="round"/>
<circle id="Ellipse 35" cx="30.3253" cy="30.3253" r="24.5971" stroke="var(--stroke-0, #F0F2F2)" stroke-width="1.49431"/>
</g>
</svg>
